<?xml version="1.0" encoding="UTF-8" standalone="no"?>
<!-- Created with Inkscape (http://www.inkscape.org/) -->

<svg
   xmlns:dc="http://purl.org/dc/elements/1.1/"
   xmlns:cc="http://creativecommons.org/ns#"
   xmlns:rdf="http://www.w3.org/1999/02/22-rdf-syntax-ns#"
   xmlns:svg="http://www.w3.org/2000/svg"
   xmlns="http://www.w3.org/2000/svg"
   xmlns:sodipodi="http://sodipodi.sourceforge.net/DTD/sodipodi-0.dtd"
   xmlns:inkscape="http://www.inkscape.org/namespaces/inkscape"
   width="738.24597"
   height="1134.464"
   id="svg3977"
   version="1.1"
   inkscape:version="0.91 r13725"
   sodipodi:docname="F.svg">
  <defs
     id="defs3979" />
  <sodipodi:namedview
     id="base"
     pagecolor="#ffffff"
     bordercolor="#666666"
     borderopacity="1.0"
     inkscape:pageopacity="0.0"
     inkscape:pageshadow="2"
     inkscape:zoom="0.49497475"
     inkscape:cx="853.88263"
     inkscape:cy="535.36512"
     inkscape:document-units="px"
     inkscape:current-layer="layer1"
     showgrid="false"
     inkscape:window-width="1598"
     inkscape:window-height="879"
     inkscape:window-x="0"
     inkscape:window-y="19"
     inkscape:window-maximized="0"
     fit-margin-top="10"
     fit-margin-left="10"
     fit-margin-right="10"
     fit-margin-bottom="10" />
  <metadata
     id="metadata3982">
    <rdf:RDF>
      <cc:Work
         rdf:about="">
        <dc:format>image/svg+xml</dc:format>
        <dc:type
           rdf:resource="http://purl.org/dc/dcmitype/StillImage" />
        <dc:title></dc:title>
      </cc:Work>
    </rdf:RDF>
  </metadata>
  <g
     inkscape:label="Ebene 1"
     inkscape:groupmode="layer"
     id="layer1"
     transform="translate(190.53416,916.00778)">
    <path
       style="fill:#000000;fill-opacity:1;fill-rule:evenodd;stroke:none"
       d="m 468.91026,-3.3344726 c 11.18898,0.5316 22.54876,14.1126996 24.6435,33.0222996 1.47348,-0.8889 8.67366,15.1522 6.90018,18.2362 0.47835,3.4597 1.10531,6.8204 2.95722,9.3645 -20.18298,9.3101 -41.01761,14.2759 -62.59451,14.2932 0.18189,-4.7058 -6.29138,-6.9863 0.29249,-11.3565 -0.18035,-14.2891 0.36477,-28.578 -0.29249,-42.8592 3.17639,-10.4047996 8.36117,-16.79279959 14.78611,-20.7004996 -5.59982,-1.1152 -8.95707,-7.8367004 -10.84314,-18.2362004 -2.71777,-15.771896 -4.42538,-31.543696 -8.3788,-47.315596 -9.65035,-5.119 -3.62007,-6.8779 -0.98574,-9.3645 3.23456,-7.6704 11.70448,-15.2313 30.06509,-0.9857 1.1532,25.298 7.44446,46.392296 3.45009,75.9019964 z"
       id="path2557"
       sodipodi:nodetypes="ccccccccccccc"
       inkscape:connector-curvature="0" />
    <path
       style="fill:#000000;fill-opacity:1;fill-rule:evenodd;stroke:none"
       d="m -116.58567,-865.87619 c 3.75575,3.93914 8.86068,8.8902 16.03335,15.39205 -1.26843,11.59067 -4.48513,18.48239 -6.41332,26.9361 -4.85334,7.01811 -13.71322,7.35867 -20.84341,10.58204 -7.6713,-3.14121 -14.65182,-10.42722 -23.08807,-8.97871 -9.79698,35.33433 18.59872,33.32755 27.89808,42.32815 l -4.81001,0.64134 c 0,0 -3.03119,3.6218 -0.32067,5.45136 5.52028,3.72617 8.69307,2.9327 8.65803,2.88602 2.96869,94.06255 7.5292,188.12509 7.37536,282.18765 -2.34616,9.07425 -16.64069,28.04337 -0.32067,51.30683 -0.29609,0.79287 10.60702,12.1961 24.691427,11.54405 8.837161,-0.6885 11.279901,-3.50851 12.506034,-6.73404 -6.753768,-7.29418 -13.401525,-14.52205 -13.468043,-17.63672 0.931509,-7.48225 1.826271,-14.96449 6.092692,-22.44674 1.763148,-0.53338 3.497774,-1.00975 6.092666,-3.20667 5.111829,5.76449 9.082755,7.19353 9.940692,-3.20669 l 3.527364,0 c 4.170885,2.15316 7.884078,1.10273 12.826708,8.65805 2.745405,-0.06 3.638852,0.49726 8.658033,-0.32068 l 3.20669,-0.32067 c -6.470802,-42.21967 -27.673633,-30.53109 -32.708129,-38.48012 -1.29986,-0.252 -2.727175,0.006 -3.20669,-3.52737 -0.534453,-91.39031 -5.532631,-181.66471 -1.603319,-274.17095 13.133459,-1.41742 11.279563,-6.29351 2.244667,-12.82671 4.549322,-15.99821 18.393978,-23.08836 4.1687,-57.07886 -16.556816,-17.35432 -37.573922,-21.3113 -47.138162,-8.97871 z"
       id="path2569"
       sodipodi:nodetypes="cccccccsccccccccccccccccccc"
       inkscape:connector-curvature="0" />
    <path
       style="fill:#000000;fill-opacity:1;fill-rule:evenodd;stroke:none"
       d="m 32.559938,-818.09668 10.58204,13.14738 -6.092666,15.07137 -8.337373,6.0927 c -6.352794,-1.16684 -10.265126,-8.43486 -15.071374,-13.46805 -18.340055,21.73233 -6.582696,34.16991 -3.527351,40.40413 6.231884,6.25424 11.210844,6.24389 16.674732,8.65803 l -0.641348,2.24467 c -1.895028,-1.48744 -3.753049,-2.82686 -4.810009,-0.96197 l -0.320674,5.45136 c 1.503775,3.45556 4.166513,4.01369 7.375363,3.20664 l 3.527351,6.0927 c -1.20733,76.28738 -4.275595,150.71385 -6.413366,226.07078 -8.184011,17.55857 -28.180656,18.65809 -14.750714,50.66551 7.587788,4.62059 4.372992,14.04237 33.028778,9.29939 0.59816,-4.1687 -3.18656,-8.33736 -5.772031,-12.50608 9.158888,1.1369 9.392354,-4.27149 5.772031,-12.50602 2.349104,-2.24957 4.94017,-4.01532 8.978703,-2.88602 1.63289,6.54229 5.80816,8.8472 9.9407,11.22339 2.97478,-8.84554 10.79816,-10.41821 6.0927,-30.78411 -4.22171,-6.11962 -8.12012,-12.4009 -17.31608,-16.03339 0.76752,-79.30786 7.28278,-156.96338 9.62006,-237.9355 10.07987,3.9303 13.26182,-11.92825 2.24467,-9.94069 4.52524,-17.54883 25.78751,-22.86677 10.58204,-54.83419 -10.53222,-10.21329 -21.60352,-19.05443 -41.366182,-5.77203 z"
       id="path2571"
       sodipodi:nodetypes="ccccccccccccccccccccccccc"
       inkscape:connector-curvature="0" />
    <path
       style="fill:#000000;fill-opacity:1;fill-rule:evenodd;stroke:none"
       d="m 139.25885,-754.60444 9.29936,3.84798 -0.32065,15.71272 c -2.97095,1.96697 -6.7987,3.64832 -7.37537,6.41338 -5.74172,0.32863 -8.9358,-3.16416 -13.14738,-5.13068 -6.88492,12.63053 3.42342,18.38374 8.33736,26.29475 l 0.32067,4.48935 c -1.8171,-0.26026 -3.63425,-2.20653 -5.45136,0.64133 -1.79167,1.71022 -1.02707,3.42047 -0.32067,5.13069 2.82742,4.1964 4.73023,3.76964 6.73405,3.848 -0.70728,61.99576 0.45963,123.99155 -4.16871,185.98732 -12.1702,21.89836 -8.987,24.14741 -7.37535,34.63213 9.72659,11.42182 17.16938,13.26815 24.37077,8.658 -0.85187,-4.1665 -1.19319,-7.99261 -4.48938,-13.78868 -1.36204,-3.22653 0.58582,-5.62557 2.56538,-8.0167 0.59809,2.18103 0.61852,4.93969 4.48934,3.84799 3.97491,-0.0735 3.35347,-2.90482 3.20669,-5.45136 -0.2299,-1.38417 -1.69422,-2.35688 -4.48938,-2.886 1.46191,-1.99312 2.84279,-4.14822 5.13068,-4.48935 l 6.73405,5.45136 c 1.86372,-4.75409 8.12424,-4.23201 2.24467,-18.27807 -1.89262,-4.75546 -4.22618,-8.77602 -8.65805,-9.29934 0.9618,-62.74389 0.15157,-124.60178 2.88602,-188.23198 13.75365,8.49039 11.8145,-7.3689 3.52736,-5.45136 3.45732,-13.0872 18.30612,-18.58004 5.77202,-42.32816 -10.1709,-6.05968 -20.4713,-15.22602 -29.82211,-1.60332 z"
       id="path2573"
       sodipodi:nodetypes="cccccccccccccccccccccccccc"
       inkscape:connector-curvature="0" />
    <path
       style="fill:#000000;fill-opacity:1;fill-rule:evenodd;stroke:none"
       d="m 233.77238,-739.53307 c 2.53852,3.28687 3.50843,7.09662 8.33737,9.62002 l 0,10.58204 c -1.71852,1.83366 -3.24216,3.27759 -5.77203,6.73401 -4.17385,1.39473 -5.68177,0.12349 -8.33738,0 -4.60024,-5.70868 -7.67151,-8.06726 -10.58204,-8.658 -3.50186,2.63865 -3.96178,8.92763 -3.20665,16.67469 6.31037,13.52416 13.74179,12.47488 20.8434,15.71272 l -0.32065,4.16871 c -1.60333,-1.74226 -3.20669,-2.62065 -4.81002,-0.96202 l 0.32063,4.81001 c 0.87657,4.53186 3.94506,2.48801 6.41338,2.24467 3.3439,50.77997 3.54132,100.77336 3.52736,150.71389 -8.31319,10.73653 -12.8537,22.22757 0,37.19747 -2.50882,3.64922 16.90445,9.46078 23.08808,-1.28269 0.65953,-1.14588 -8.0167,-7.05468 -8.0167,-7.05468 2.24467,-0.47542 4.48934,1.43465 6.734,-2.88602 0,0 0.50545,-3.88226 0,-6.0927 -0.95741,-4.18704 -6.91512,-2.80279 -7.05467,-2.24467 0.89042,-3.05917 2.20729,-5.99648 8.9787,-7.37535 4.02146,2.91221 7.69603,5.13065 12.50604,9.62002 4.00801,-5.4968 7.52897,-11.33082 0.64135,-24.37072 -8.56872,-7.78476 -9.98841,-5.56084 -14.75074,-8.0167 -3.00701,-48.85846 -3.51031,-99.71994 -2.24467,-151.99653 l 1.92399,0 c 8.3929,4.53792 7.49803,0.94907 9.62006,0 1.25347,-1.47058 1.93474,-3.13184 0.64131,-5.45136 -2.80309,-1.87804 -5.71555,-4.52152 -7.69603,-0.64135 l -4.16865,-0.96202 0.962,-6.41332 c 2.68053,-8.86076 9.09412,-12.74412 2.24467,-34.31147 -15.85055,-11.60594 -22.16689,-4.14341 -29.82211,0.64135 z"
       id="path2575"
       sodipodi:nodetypes="ccccccccccccccsccscccccccccccccc"
       inkscape:connector-curvature="0" />
    <path
       style="fill:#000000;fill-opacity:1;fill-rule:evenodd;stroke:none"
       d="m 317.17191,-732.15772 c 2.24467,0.32067 9.29938,6.41337 9.29938,6.41337 l -0.32067,9.62003 c 0.12193,7.29103 -5.1031,6.56161 -8.0167,9.29934 l -6.41336,-4.81001 c -2.96976,-4.26678 -4.52408,-1.45631 -6.73402,-1.92399 -3.08442,16.33101 1.3973,21.3128 6.73402,25.01207 l 6.41336,3.20669 -2.56534,4.16866 c -1.62331,6.93877 2.10747,6.73886 5.45136,7.05472 0.71506,50.87926 4.69712,101.75857 7.05469,152.63784 -4.75358,3.60108 -9.07721,8.57792 -9.62003,25.65346 4.67503,18.0391 14.13752,22.15107 28.21875,12.82671 -2.11541,-2.64989 -5.06675,-6.13568 -8.0167,-9.62007 1.26877,-2.68615 1.05971,-6.8501 0.64135,-11.22333 2.3131,3.86073 5.27823,4.78724 9.29936,0.96196 1.49811,-1.17455 -0.0558,-4.63809 -1.92401,-8.33736 l 4.81001,-2.88597 c 2.56535,2.92209 5.13068,4.96164 7.69604,7.05468 2.87436,-3.19453 5.72866,-6.41408 1.92399,-17.9574 -1.78065,-9.09938 -7.4795,-9.05631 -11.54402,-12.82671 -3.65087,-49.77815 -7.25421,-97.25813 -10.90272,-150.07254 3.09882,2.56038 5.43919,1.32876 7.69603,-0.32067 0.73432,-4.39549 2.66856,-9.5109 -4.81001,-8.97868 l -2.24467,0.32063 c 2.07794,-11.49615 13.14106,-15.20511 3.848,-36.55611 -11.03192,-9.06804 -19.20615,-6.7052 -25.97409,1.28268 z"
       id="path2577"
       sodipodi:nodetypes="ccccccccccccccccccccccccccc"
       inkscape:connector-curvature="0" />
    <path
       style="fill:#000000;fill-opacity:1;fill-rule:evenodd;stroke:none"
       d="m -24.80977,16.903735 c -2.33179,10.81663 -0.0882,20.3239 2.46433,30.311515 15.4366004,-2.26842 24.8120404,-3.779195 35.24023,-5.421565 -0.29305,6.852795 2.26469,9.904535 7.88592,8.871655 -2.70504,52.87655 -2.81462,103.80651 -2.95724,154.76122 7.38575,5.15876 15.67094,2.22233 23.65776,1.97148 4.39943,-53.27011 2.64735,-101.64132 3.94296,-161.6614 6.63461,1.70589 5.22429,-4.633125 4.92872,-9.857395 15.48073,-3.57692 32.19748,-5.91781 48.301279,-8.87167 C 84.105099,19.274265 68.84153,12.731765 52.32439,8.2785155 c -2.73365,-3.41791 -6.54078,-1.46835 -9.8574,-1.97148 L 40.49551,0.88545546 c -8.12795,-0.51256 -17.5708,-1.6241 -21.19341,1.72505004 -0.0174,0.89812 0.008,7.6630995 -4.43583,6.90018 -16.2595296,2.8750795 -25.75308,4.5179795 -39.67604,7.3930495 z"
       id="path2525"
       sodipodi:nodetypes="ccccccccccccccc"
       inkscape:connector-curvature="0" />
    <path
       style="fill:#000000;fill-opacity:1;fill-rule:evenodd;stroke:none"
       d="m -139.06052,-35.830885 c -0.91234,11.33952 -1.34853,22.48857 0.98576,32.52943 0.33557,5.65462 8.56788,6.48343 20.70055,4.92871 2.57441,-2.51881 8.62701,-3.05009 15.77184,-2.95722 1.93108,2.38425 -5.62518,6.26652 7.39305,6.90018 1.5715,62.19454 1.07273,122.318795 1.4786,183.347675 9.69311,3.43364 19.386241,1.59967 29.079351,-1.4786 -0.99344,-62.26593 -3.92033,-124.531855 -1.97148,-186.797775 7.39302,1.80716 9.85743,-0.65714 7.39305,-7.39306 13.96465,-5.91444 27.05399,-10.07828 41.89396,-17.74332 l -0.49288,-4.43583 c -5.77867,-3.61439 -26.94355,-7.22877 -40.41533,-10.84315 -3.03598,-0.73592 -4.63505,-0.0349 -6.40735,0.49287 l 3e-5,-4.43583 c -9.67216,0.13288 -18.010051,-1.73568 -30.065081,1.97148 l -0.24643,6.40731 c -15.44197,-0.16488 -22.2094,-3.71265 -45.09764,-0.49287 z"
       id="path2527"
       sodipodi:nodetypes="ccccccccccccccccc"
       inkscape:connector-curvature="0" />
    <path
       style="fill:#000000;fill-opacity:1;fill-rule:evenodd;stroke:none"
       d="m 79.329981,-56.580425 c -23.98707,13.9956 -7.54877,43.54206 1.47861,41.89396 17.21945,-2.99936 11.49931,-12.46981 14.29323,-14.7861 3.2858,-1.64291 6.242999,-1.64289 8.871649,0 1.87827,5.71679 4.28053,10.58213 11.33603,7.88592 6.3252,71.986405 10.33178,144.745705 14.78609,217.355735 8.8612,6.38943 20.0392,2.13316 28.0936,-1.97148 L 134.53143,-21.586645 c 3.4909,-0.62314 7.67168,-0.67141 7.39304,-4.43583 10.84315,2.31528 21.68628,11.28274 32.52944,17.74332 7.04621,0.70737 13.78225,0.87188 18.23619,-2.95722 -16.78123,-13.30158 -32.96813,-26.75175 -52.24423,-39.42961 -2.20405,-1.2738 -4.53753,-2.15926 -7.39305,-1.47861 l -0.49287,-7.39305 c -6.6194,-3.10056 -11.3197,-0.44385 -16.7576,0 -3.92002,0.87111 -0.34664,10.75588 -0.49285,10.35027 -0.66859,-1.85464 -20.700549,2.95722 -20.700549,2.95722 -5.3504,-7.31137 -10.57957,-12.80388 -15.27897,-10.35027 z"
       id="path2529"
       sodipodi:nodetypes="cccccccccccccccscc"
       inkscape:connector-curvature="0" />
    <path
       style="fill:#000000;fill-opacity:1;fill-rule:evenodd;stroke:none"
       d="m 379.13866,-381.01778 -0.49288,-3.45008 c 6.13727,-0.93696 9.92717,-3.83008 21.19344,-0.49288 0,0 -1.03191,5.19573 -0.24644,3.94296 2.17117,-3.46291 5.83552,-1.08402 5.668,-0.24644 l 0.24644,5.17515 c -1.39958,2.62245 -4.14381,2.55555 -7.39307,1.47861 -4.84739,80.58427 -11.82717,161.16854 -10.59669,241.75282 -4.33651,9.56318 -13.31947,9.83348 -22.17916,10.35028 4.10725,-82.96649 12.56822,-155.04866 12.32176,-248.89943 l -3.20367,-0.49288 c -0.29515,-1.86401 -1.40887,-2.11693 0,-7.39304 l 4.68227,-1.72507 z"
       id="path2579"
       sodipodi:nodetypes="cccsccccccccc"
       inkscape:connector-curvature="0" />
    <path
       style="fill:#000000;fill-opacity:1;fill-rule:evenodd;stroke:none"
       d="m 392.11425,-687.2988 c 1.56731,0.2239 6.49313,4.47802 6.49313,4.47802 l -0.2239,6.71702 c 0.0851,5.09083 -3.56315,4.58153 -5.59752,6.4931 l -4.47801,-3.35851 c -2.07359,-2.9792 -3.15886,-1.01684 -4.70191,-1.34339 -2.15365,11.40284 0.97564,14.88129 4.70191,17.46424 l 4.47801,2.23901 -1.7912,2.9107 c -1.13345,4.84487 1.4715,4.70529 3.80631,4.92583 0.49928,35.52554 3.27968,71.05112 4.92582,106.57667 -3.31911,2.51439 -6.33801,5.98938 -6.71702,17.91207 3.26426,12.59549 9.87127,15.4666 19.70324,8.95603 -1.47704,-1.85024 -3.53777,-4.28413 -5.59752,-6.71705 0.8859,-1.87555 0.73993,-4.78296 0.44782,-7.83649 1.61508,2.69569 3.68543,3.34261 6.49311,0.67167 1.04603,-0.8201 -0.039,-3.23846 -1.34341,-5.82141 l 3.35851,-2.01508 c 1.79121,2.0403 3.5824,3.46438 5.37362,4.92581 2.00697,-2.23053 3.99994,-4.47852 1.34339,-12.53844 -1.2433,-6.35348 -5.22243,-6.32341 -8.0604,-8.95602 -2.54916,-34.75671 -5.06513,-67.90877 -7.61264,-104.7855 2.1637,1.78774 3.79782,0.92779 5.37362,-0.2239 0.51273,-3.06907 1.86328,-6.64082 -3.3585,-6.2692 l -1.5673,0.22387 c 1.45088,-8.02698 9.17551,-10.6167 2.68679,-25.52466 -7.70284,-6.3316 -13.41035,-4.68178 -18.13595,0.89561 z"
       id="path2577-0"
       sodipodi:nodetypes="ccccccccccccccccccccccccccc"
       inkscape:connector-curvature="0" />
    <path
       style="fill:#000000;fill-opacity:1;fill-rule:evenodd;stroke:none"
       d="m 449.49752,-682.24805 c 1.56731,0.2239 6.49313,4.47802 6.49313,4.47802 l -0.2239,6.71702 c 0.0851,5.09083 -3.56315,4.58153 -5.59752,6.4931 l -4.47801,-3.35851 c -2.07359,-2.9792 -3.15886,-1.01684 -4.70191,-1.34339 -2.15365,11.40284 0.97564,14.88129 4.70191,17.46424 l 4.47801,2.23901 -1.7912,2.9107 c -1.13345,4.84487 1.4715,4.70529 3.80631,4.92583 0.49928,35.52554 3.27968,71.05112 4.92582,106.57667 -3.31911,2.51439 -6.33801,5.98938 -6.71702,17.91207 3.26426,12.59549 9.87127,15.4666 19.70324,8.95603 -1.47704,-1.85024 -3.53777,-4.28413 -5.59752,-6.71705 0.8859,-1.87555 0.73993,-4.78296 0.44782,-7.83649 1.61508,2.69569 3.68543,3.34261 6.49311,0.67167 1.04603,-0.8201 -0.039,-3.23846 -1.34341,-5.82141 l 3.35851,-2.01508 c 1.79121,2.0403 3.5824,3.46438 5.37362,4.92581 2.00697,-2.23053 3.99994,-4.47852 1.34339,-12.53844 -1.2433,-6.35348 -5.22243,-6.32341 -8.0604,-8.95602 -2.54916,-34.75671 -5.06513,-67.90877 -7.61264,-104.7855 2.1637,1.78774 3.79782,0.92779 5.37362,-0.2239 0.51273,-3.06907 1.86328,-6.64082 -3.3585,-6.2692 l -1.5673,0.22387 c 1.45088,-8.02698 9.17551,-10.6167 2.68679,-25.52466 -7.70284,-6.3316 -13.41035,-4.68178 -18.13595,0.89561 z"
       id="path2577-0-6"
       sodipodi:nodetypes="ccccccccccccccccccccccccccc"
       inkscape:connector-curvature="0" />
    <path
       style="fill:#000000;fill-opacity:1;fill-rule:evenodd;stroke:none"
       d="m 135.14691,-341.37036 c 9.11221,-1.39665 16.90109,0.29459 24.04729,3.48512 2.3274,-20.21501 3.8683,-40.16785 8.0158,-60.98958 8.487,-1.09903 16.4836,-3.99627 26.8354,1.74256 l 0.3485,2.78809 c 3.2031,-7.50531 25.577,-3.44242 26.4869,1.39404 -2.3953,41.62919 -6.8462,82.7445 -11.8494,123.72171 -3.0363,5.66222 -6.6157,16.97335 -9.0613,5.92469 -3.3972,37.74839 -7.756,75.25637 -8.7128,113.61487 -1.3959,13.74373 -2.0152,12.73106 -2.7881,14.63749 -2.0466,0.56373 -3.8374,0.36 -5.2277,-1.04553 1.9431,-40.80775 4.3739,-81.12774 6.9703,-121.28211 -2.8345,0.30194 -4.6699,-0.89485 -4.8792,-4.53065 l 0.3485,-4.53067 c -1.3172,-16.38005 -1.2693,-32.76013 0.697,-49.14017 -3.9351,21.39003 -6.0695,44.58089 -11.8494,64.12617 -2.2072,4.09448 -4.4144,7.04801 -6.6217,5.92472 2.9954,10.69888 -1.7667,6.8523 -3.4851,8.7128 -6.0094,35.13273 -10.216,70.8664 -14.28898,106.6446 -1.9749,-0.40329 -3.94981,0.1625 -5.92471,0.34852 -0.74779,-4.67223 -1.25132,-9.2223 -0.69702,-13.24345 3.13661,-31.5984 7.24341,-62.22662 9.40981,-94.79522 -8.3014,-3.2735 -2.52995,-7.68216 -1.0455,-9.75833 -1.0456,-0.19197 -2.0911,-2.04186 -3.13663,-4.18213 -1.59478,-8.46465 0.62168,-15.02368 1.39405,-22.30476 -1.85873,9.64215 -4.46476,16.29515 -5.57619,28.92649 2.021,2.59743 0.83791,3.91323 -0.34852,5.22768 -0.0209,3.40704 -0.8172,6.50395 -7.31874,7.31873 1.29452,4.75094 -0.34486,7.90158 -6.27322,8.7128 -4.13638,34.15417 -7.572,68.3083 -12.89493,102.46247 -5.42715,1.84343 -10.56433,2.52694 -15.33452,1.74256 -1.46667,-7.22434 -1.51008,-15.16035 -0.34851,-23.69881 4.64997,-25.47118 7.95478,-50.60608 14.986,-76.67258 -0.79733,-2.54567 -8.00886,-1.34969 -1.74256,-8.0158 -4.64251,-3.1028 -4.25529,-5.48706 4.87917,-6.62172 l 0.34851,-1.74256 -3.1366,-2.78809 c 2.84845,-33.52526 11.36744,-67.99563 17.7741,-102.11395 z"
       id="path2589"
       sodipodi:nodetypes="cccccccccccccccccccccccccccccccccccccc"
       inkscape:connector-curvature="0" />
    <path
       style="fill:#000000;fill-opacity:1;fill-rule:evenodd;stroke:none"
       d="m 21.422428,-383.64994 c 12.79577,-11.71341 23.2062,-9.90993 32.06309,0.69704 1.39279,54.58197 -6.37318,97.38838 -13.94048,140.45024 -0.0558,7.79258 -0.43341,14.2979 -2.43958,14.289 1.85029,0.8704 -2.1522,9.39984 -7.60746,6.62173 1.87569,-0.62913 -3.52457,82.41288 -6.68152,83.99134 -5.24543,-3.41735 -7.76255,-10.10866 -9.75834,-17.42557 2.55576,-20.01719 5.11151,-46.6992 7.66726,-70.05089 -3.32135,-0.18662 -6.79966,-0.26862 -2.43958,-5.5762 -0.7153,-0.0705 -1.80825,0.80318 0,-5.57617 -2.43326,-50.13413 1.34719,-98.49287 3.13661,-147.42052 z"
       id="path2591"
       sodipodi:nodetypes="ccccccccccc"
       inkscape:connector-curvature="0" />
    <path
       style="fill:#000000;fill-opacity:1;fill-rule:evenodd;stroke:none"
       d="m 282.67618,-389.48894 c 0.4078,-5.71093 27.689,-4.04726 28.5865,0.73931 -1.0062,6.09392 0.5379,11.23207 -0.9857,16.01828 l 1.9714,0.24641 c -0.4856,28.47951 -4.8247,51.45399 -9.8574,73.43767 2.0477,10.87533 -0.2082,15.29519 -0.4928,22.67204 -1.0402,1.91701 -2.5761,3.33843 -4.9287,3.94296 0.3392,4.00722 -0.423,7.73909 -2.7108,11.08956 0.5939,7.15565 -3.2445,6.71277 -7.1466,6.16088 -2.313,40.03037 -5.8049,82.41869 -6.9002,120.01388 -3.1765,1.78147 -6.33803,3.4578 -8.87168,0.73931 0.37497,-8.34135 -0.54568,-18.30223 2.21792,-23.65776 4.60196,-49.04517 2.73146,-61.71154 5.66796,-94.1382 -2.1593,-0.84484 -4.3465,-1.66878 -3.9429,-4.43583 -2.83347,2.07218 -7.16588,-0.8574 -7.63953,-2.46436 -0.74487,-2.34392 -0.8803,-4.38311 0.98576,-5.42156 l 4.92871,0.73928 c -0.70498,-3.69652 -2.94176,-7.39304 0,-11.08956 l -3.94299,-0.49288 c -0.6107,-4.28345 -0.84987,-8.44303 0.49288,-12.07532 l 1.97148,-0.24644 c -3.87176,-4.08221 -0.99836,-9.12802 -0.73929,-13.80036 l 2.71077,0.98576 c 0.26087,-23.08277 -0.0967,-46.16551 3.94301,-69.24827 l 2.2179,-1.97148 c -0.4045,-6.5274 0.2426,-12.52904 2.4643,-17.74332 z"
       id="path2581"
       sodipodi:nodetypes="cccccccccccccccccccccccccc"
       inkscape:connector-curvature="0" />
    <path
       style="fill:#000000;fill-opacity:1;fill-rule:evenodd;stroke:none"
       d="m 342.02055,-360.43583 c 4.431,-1.12225 9.0396,-6.28528 22.9185,1.72507 -0.9593,23.90156 1.751,49.33206 -6.4073,70.234 -1.955,9.74218 -4.9953,21.65506 -5.1752,27.84716 -0.6512,12.75635 -4.2208,13.8391 -7.393,16.51112 l -1.2322,3.45011 c 1.0389,-1.48334 2.7603,-0.91944 4.4358,-0.49287 1.3096,2.59389 1.2351,4.63413 -0.7393,5.91444 -0.9387,0.29349 -1.5191,0.94524 -3.6965,0 -2.0318,15.27374 -4.1687,30.96795 -4.9287,41.15467 l -2.2179,2.46433 c -1.5234,-13.01877 -0.8607,-26.76621 -0.4929,-40.41536 0,-2.79125 -0.5392,-5.31622 -4.4358,-6.16085 -1.821,0.12606 -2.445,-0.70557 -0.9858,-3.20367 2.0827,0.0146 3.3939,-0.35666 6.6538,0.24644 l -0.4929,-3.45009 c -2.0935,-2.0233 -4.6499,0.11941 -6.1609,-7.14663 1.0969,-14.7282 0.3423,-33.1592 0.2465,-50.27276 0.1252,-12.6587 -2.5232,-19.49275 10.1038,-58.40511 z"
       id="path2583"
       sodipodi:nodetypes="ccccccccccccccccccc"
       inkscape:connector-curvature="0" />
    <path
       style="fill:#000000;fill-opacity:1;fill-rule:evenodd;stroke:none"
       d="m 479.77768,-362.35044 c -0.19546,1.82575 -1.40787,32.55863 -2.73856,32.55863 0.36277,5.65373 -0.87729,14.11255 2.43432,14.60573 -2.02858,39.79355 -4.05715,74.1604 -6.08573,111.06447 -2.21156,-0.41563 -1.9635,0.52531 -5.78147,0.91287 -2.53618,0 -3.14726,4.72752 -0.30425,8.2157 1.99425,2.44681 15.74852,3.06926 18.25717,0.30429 0.54736,-0.60337 0.0877,-5.30272 -1.52146,-8.51999 l -4.26002,-1.82574 c 2.94142,-35.77201 5.88285,-67.85434 8.82428,-107.41303 1.55652,-1.27983 3.1838,-2.27649 3.95577,-6.69428 1.65358,-12.32002 0.33375,-26.62232 -0.30437,-40.47006 -0.95952,-5.39155 -7.87376,-2.44639 -12.47568,-2.73859 z"
       id="path2585"
       sodipodi:nodetypes="cccccsscccccc"
       inkscape:connector-curvature="0" />
    <path
       style="fill:#000000;fill-opacity:1;fill-rule:evenodd;stroke:none"
       d="m -32.051081,-355.41221 c 10.15058,-9.29197 18.40893,-7.86131 25.4348898,0.55295 1.10486,43.29857 -5.0556898,77.25588 -11.0586498,111.41583 -0.0443,6.18167 -0.34382,11.34218 -1.93526,11.33512 1.46779,0.69047 -1.70729,7.45667 -6.03482,5.25286 1.48794,-0.49907 -2.79596,65.37617 -5.30029,66.62833 -4.16108,-2.7109 -6.15785,-8.01896 -7.74106,-13.82329 2.02742,-15.87916 4.05484,-37.04536 6.08225,-55.5697 -2.63474,-0.14804 -5.394,-0.21309 -1.93526,-4.42347 -0.56743,-0.0559 -1.43444,0.63715 0,-4.42344 -1.93024,-39.77021 1.0687,-78.13205 2.4882,-116.94519 z"
       id="path2591-3"
       sodipodi:nodetypes="ccccccccccc"
       inkscape:connector-curvature="0" />
    <path
       style="fill:#000000;fill-opacity:1;fill-rule:evenodd;stroke:none"
       d="m 419.60182,-359.97894 c 0.31594,-4.42456 21.45212,-3.13563 22.14746,0.57278 -0.77956,4.72128 0.41674,8.70207 -0.76367,12.4102 l 1.52734,0.19091 c -0.37622,22.06457 -3.73795,39.8641 -7.63704,56.89601 1.58646,8.42568 -0.16131,11.84998 -0.3818,17.56521 -0.8059,1.48521 -1.99584,2.58646 -3.81852,3.05482 0.26279,3.1046 -0.32772,5.99588 -2.1002,8.59166 0.46012,5.54386 -2.51368,5.20074 -5.53685,4.77316 -1.792,31.01363 -4.49736,63.85408 -5.34594,92.98104 -2.461,1.3802 -4.91041,2.67894 -6.87336,0.57279 0.29051,-6.46249 -0.42276,-14.1797 1.71834,-18.32891 3.56538,-37.99786 2.11621,-47.81116 4.39127,-72.9338 -1.67293,-0.65454 -3.36746,-1.29289 -3.05477,-3.43667 -2.19524,1.60543 -5.55179,-0.66427 -5.91875,-1.90927 -0.57709,-1.81596 -0.68201,-3.39582 0.76372,-4.20036 l 3.81853,0.57275 c -0.54618,-2.86388 -2.27913,-5.72777 0,-8.59166 l -3.05484,-0.38186 c -0.47314,-3.31861 -0.65844,-6.54126 0.38186,-9.35538 l 1.52741,-0.19093 c -2.99966,-3.1627 -0.77348,-7.07195 -0.57277,-10.69186 l 2.10018,0.76372 c 0.20211,-17.88343 -0.0749,-35.76684 3.05485,-53.65026 l 1.71833,-1.52741 c -0.31339,-5.05712 0.18795,-9.70691 1.90922,-13.74668 z"
       id="path2581-4"
       sodipodi:nodetypes="cccccccccccccccccccccccccc"
       inkscape:connector-curvature="0" />
    <path
       style="fill:#000000;fill-opacity:1;fill-rule:evenodd;stroke:none"
       d="m -99.761015,-401.02849 c 0.47115,-6.59808 31.9903,-4.67597 33.02722,0.85416 -1.16251,7.04057 0.62146,12.9769 -1.13882,18.50661 l 2.27764,0.28469 c -0.56104,32.90361 -5.57418,59.44702 -11.38868,84.84571 2.3658,12.56474 -0.24054,17.67119 -0.56935,26.19399 -1.20179,2.2148 -2.97628,3.85703 -5.69434,4.55547 0.39189,4.62971 -0.48871,8.9413 -3.13191,12.81225 0.68616,8.26723 -3.74851,7.75555 -8.25677,7.11793 -2.67231,46.24881 -6.706655,95.22187 -7.972105,138.65722 -3.66995,2.0582 -7.3226,3.99494 -10.24984,0.85415 0.43322,-9.63712 -0.63044,-21.14535 2.56246,-27.33283 5.31684,-56.664 3.15578,-71.29801 6.54844,-108.76193 -2.49473,-0.97608 -5.0217,-1.92801 -4.5554,-5.1249 -3.27363,2.39408 -8.27905,-0.99059 -8.82628,-2.84718 -0.86058,-2.70804 -1.01705,-5.064 1.13889,-6.26377 l 5.69435,0.85413 c -0.81449,-4.27075 -3.39874,-8.5415 0,-12.81225 l -4.55551,-0.56945 c -0.70556,-4.94885 -0.98189,-9.75459 0.56945,-13.95114 l 2.27774,-0.28472 c -4.47322,-4.71635 -1.15345,-10.54599 -0.85414,-15.94415 l 3.13187,1.13889 c 0.3014,-26.66852 -0.11172,-53.33701 4.55553,-80.00552 l 2.56244,-2.27773 c -0.46734,-7.54139 0.28028,-14.47534 2.847115,-20.49963 z"
       id="path2581-41"
       sodipodi:nodetypes="cccccccccccccccccccccccccc"
       inkscape:connector-curvature="0" />
    <path
       style="fill:#000000;fill-opacity:1;fill-rule:evenodd;stroke:none"
       d="m 77.171144,-416.67919 -0.59472,-4.16289 c 7.40528,-1.13054 11.9782,-4.6214 25.572156,-0.59471 0,0 -1.24511,6.26921 -0.29735,4.7576 2.61975,-4.17837 7.04118,-1.30798 6.83905,-0.29735 l 0.29735,6.24437 c -1.68874,3.16427 -4.99995,3.08355 -8.92053,1.7841 -5.848896,97.23357 -14.270746,194.46714 -12.786036,291.70073 -5.23247,11.539 -16.07137,11.86515 -26.76154,12.48872 4.95584,-100.10797 15.16491,-187.08285 14.86753,-300.32388 l -3.86558,-0.59471 c -0.35613,-2.24913 -1.69995,-2.5543 0,-8.92049 l 5.64967,-2.08149 z"
       id="path2579-9"
       sodipodi:nodetypes="cccsccccccccc"
       inkscape:connector-curvature="0" />
    <path
       style="fill:#000000;fill-opacity:1;fill-rule:evenodd;stroke:none"
       d="m 200.32187,21.93462 c -1.76602,8.19218 -0.0668,15.39268 1.86641,22.95698 11.69119,-1.71803 18.79185,-2.86224 26.68983,-4.10612 -0.22195,5.19009 1.71521,7.50138 5.97255,6.71911 -2.04871,40.04702 -2.13171,78.61976 -2.23972,117.21124 5.59373,3.90709 11.86867,1.68313 17.91763,1.49314 3.33199,-40.34509 2.00502,-76.97991 2.98628,-122.43722 5.02484,1.29199 3.95671,-3.50898 3.73285,-7.46568 11.72462,-2.70904 24.38536,-4.48196 36.58186,-6.71912 -11.01902,-5.85696 -22.57916,-10.81204 -35.08872,-14.18479 -2.07038,-2.58862 -4.95378,-1.11209 -7.46568,-1.49314 l -1.49314,-4.10613 c -6.15585,-0.3882 -13.30757,-1.23004 -16.05122,1.3065 -0.0132,0.6802 0.006,5.80378 -3.35955,5.22597 -12.31446,2.1775 -19.50457,3.42178 -30.04938,5.59926 z"
       id="path2525-8"
       sodipodi:nodetypes="ccccccccccccccc"
       inkscape:connector-curvature="0" />
    <path
       style="fill:#000000;fill-opacity:1;fill-rule:evenodd;stroke:none"
       d="m 311.55718,24.386316 c -0.45712,5.68152 -0.67566,11.267624 0.4939,16.298474 0.16814,2.83318 4.29283,3.24844 10.37176,2.46947 1.28988,-1.26202 4.32246,-1.52821 7.90229,-1.48168 0.96754,1.1946 -2.81843,3.13976 3.70419,3.45725 0.78738,31.16181 0.53748,61.28633 0.74084,91.8641 4.85661,1.72039 9.71324,0.8015 14.56985,-0.74083 -0.49775,-31.19758 -1.96423,-62.39516 -0.98779,-93.59273 3.70419,0.90545 4.93895,-0.32926 3.7042,-3.70421 6.99682,-2.96335 13.55507,-5.04959 20.99046,-8.890074 l -0.24695,-2.22252 c -2.89534,-1.81094 -13.49974,-3.62189 -20.24961,-5.43283 -1.52114,-0.36872 -2.32234,-0.0175 -3.21032,0.24695 l 1e-5,-2.22252 c -4.84612,0.0666 -9.02371,-0.86964 -15.06374,0.98779 l -0.12347,3.2103 c -7.73701,-0.0826 -11.12775,-1.86018 -22.59562,-0.24694 z"
       id="path2527-5"
       sodipodi:nodetypes="ccccccccccccccccc"
       inkscape:connector-curvature="0" />
    <rect
       style="fill:#000000;fill-opacity:1;stroke:#000000;stroke-width:0.98217279;stroke-miterlimit:100;stroke-dasharray:5.89303663, 5.89303663;stroke-dashoffset:0;stroke-opacity:1"
       id="rect4552"
       width="699.0434"
       height="20.22086"
       x="-171.94305"
       y="-250.91911" />
    <rect
       style="fill:none;fill-opacity:1;stroke:#000000;stroke-width:17.20000076;stroke-miterlimit:100;stroke-dasharray:none;stroke-dashoffset:0;stroke-opacity:1"
       id="rect4586"
       width="701.04596"
       height="987.92883"
       x="-171.93416"
       y="-897.40778"
       ry="0" />
  </g>
</svg>
